<svg width="645" height="170" viewBox="0 0 645 170" fill="none" xmlns="http://www.w3.org/2000/svg">
<path fill-rule="evenodd" clip-rule="evenodd" d="M46.4054 49.7029C46.4054 50.4963 46.4337 51.2832 46.4892 52.0625C45.3095 51.5164 44.0846 51.0346 42.8174 50.6229C25.6401 45.0416 7.19066 54.4421 1.60942 71.6194C-3.97182 88.7967 5.42864 107.246 22.606 112.827C23.3602 113.072 24.1168 113.289 24.8747 113.477C23.9909 114.43 23.1543 115.446 22.3712 116.523C11.755 131.135 14.9942 151.587 29.6061 162.203C44.218 172.819 64.6694 169.58 75.2855 154.968C75.7516 154.326 76.191 153.674 76.6039 153.011C77.237 154.145 77.9444 155.255 78.7271 156.332C89.3433 170.944 109.795 174.183 124.407 163.567C139.018 152.951 142.258 132.499 131.641 117.887C131.175 117.246 130.69 116.626 130.187 116.028C131.462 115.776 132.736 115.446 134.002 115.035C151.18 109.453 160.58 91.0038 154.999 73.8265C149.418 56.6492 130.968 47.2487 113.791 52.83C113.038 53.0747 112.3 53.3442 111.577 53.6372C111.732 52.3474 111.811 51.0344 111.811 49.7029C111.811 31.6416 97.1695 17 79.1082 17C61.047 17 46.4054 31.6416 46.4054 49.7029ZM79.284 97.2568L79.1075 97.4453L77.985 96.2393L78.1173 96.4791L76.6266 97.1725L76.8913 97.1216L77.0896 98.7491L77.1226 98.4847L78.7365 98.8L78.4907 98.6848L79.284 97.2568Z" fill="#FFC1C1"/>
<path d="M75.0969 83.2437C75.5703 80.2633 79.8602 80.2633 80.3335 83.2437L80.6171 85.029C80.9275 86.9831 83.1916 87.9209 84.7928 86.7586L86.2557 85.6967C88.6978 83.924 91.7313 86.9574 89.9585 89.3996L88.8966 90.8625C87.7343 92.4637 88.6722 94.7278 90.6263 95.0382L92.4116 95.3217C95.392 95.7951 95.392 100.085 92.4116 100.558L90.6263 100.842C88.6722 101.152 87.7343 103.416 88.8967 105.018L89.9586 106.481C91.7313 108.923 88.6978 111.956 86.2557 110.183L84.7928 109.122C83.1915 107.959 80.9275 108.897 80.6171 110.851L80.3335 112.636C79.8602 115.617 75.5703 115.617 75.0969 112.636L74.8133 110.851C74.503 108.897 72.2389 107.959 70.6376 109.122L69.1747 110.183C66.7326 111.956 63.6992 108.923 65.4719 106.481L66.5338 105.018C67.6961 103.416 66.7583 101.152 64.8041 100.842L63.0188 100.558C60.0385 100.085 60.0385 95.7951 63.0189 95.3217L64.8042 95.0382C66.7583 94.7278 67.6961 92.4637 66.5338 90.8625L65.4719 89.3996C63.6992 86.9574 66.7326 83.924 69.1747 85.6967L70.6376 86.7586C72.2389 87.9209 74.503 86.9831 74.8133 85.029L75.0969 83.2437Z" fill="#FF9292"/>
<path d="M243.6 154.6C230.267 154.6 219.733 151.6 212 145.6C204.267 139.467 198.933 132.267 196 124C193.067 115.6 191.6 107.467 191.6 99.6C191.6 91.7334 193.067 83.6667 196 75.4C198.933 67 204.267 59.8 212 53.8C219.733 47.6667 230.267 44.6 243.6 44.6C256.8 44.6 267.267 47.6667 275 53.8C282.733 59.8 288.067 67 291 75.4C294.067 83.6667 295.6 91.7334 295.6 99.6C295.6 107.467 294.067 115.6 291 124C288.067 132.267 282.733 139.467 275 145.6C267.267 151.6 256.8 154.6 243.6 154.6ZM243.6 136.2C254.4 136.2 262.4 132.667 267.6 125.6C272.8 118.533 275.4 109.867 275.4 99.6C275.4 89.3334 272.8 80.6667 267.6 73.6C262.4 66.5334 254.4 63 243.6 63C232.8 63 224.8 66.5334 219.6 73.6C214.4 80.6667 211.8 89.3334 211.8 99.6C211.8 109.867 214.4 118.533 219.6 125.6C224.8 132.667 232.8 136.2 243.6 136.2Z" fill="black"/>
<path d="M429.042 44.6C438.642 44.6 446.909 47.4667 453.842 53.2C460.909 58.8 464.442 69.4667 464.442 85.2V152H444.042V88.6C444.042 81.4 442.442 75.5334 439.242 71C436.042 66.3334 431.709 64 426.242 64C421.442 64 416.909 66.2 412.642 70.6C408.375 74.8667 405.709 81.5334 404.642 90.6V152H383.242V88.6C383.242 80.7334 381.709 74.6667 378.642 70.4C375.575 66.1334 371.242 64 365.642 64C362.575 64 359.442 65.0667 356.242 67.2C353.042 69.2 350.309 72.4 348.042 76.8C345.775 81.0667 344.375 86.4667 343.842 93V152H322.642V47.2H343.842V59C346.509 54.2 350.175 50.6 354.842 48.2C359.509 45.8 364.042 44.6 368.442 44.6C383.775 44.6 394.242 50.5334 399.842 62.4C403.842 56.8 408.109 52.4667 412.642 49.4C417.309 46.2 422.775 44.6 429.042 44.6Z" fill="black"/>
<path d="M542.037 154.6C528.704 154.6 518.171 151.6 510.437 145.6C502.704 139.467 497.371 132.267 494.437 124C491.504 115.6 490.037 107.467 490.037 99.6C490.037 91.7334 491.504 83.6667 494.437 75.4C497.371 67 502.704 59.8 510.437 53.8C518.171 47.6667 528.704 44.6 542.037 44.6C555.237 44.6 565.704 47.6667 573.437 53.8C581.171 59.8 586.504 67 589.437 75.4C592.504 83.6667 594.037 91.7334 594.037 99.6C594.037 107.467 592.504 115.6 589.437 124C586.504 132.267 581.171 139.467 573.437 145.6C565.704 151.6 555.237 154.6 542.037 154.6ZM542.037 136.2C552.837 136.2 560.837 132.667 566.037 125.6C571.237 118.533 573.837 109.867 573.837 99.6C573.837 89.3334 571.237 80.6667 566.037 73.6C560.837 66.5334 552.837 63 542.037 63C531.237 63 523.237 66.5334 518.037 73.6C512.837 80.6667 510.237 89.3334 510.237 99.6C510.237 109.867 512.837 118.533 518.037 125.6C523.237 132.667 531.237 136.2 542.037 136.2Z" fill="black"/>
<path d="M631.28 26.4C627.68 26.4 624.613 25.1334 622.08 22.6C619.546 20.0667 618.28 17 618.28 13.4C618.28 9.80002 619.546 6.73336 622.08 4.20002C624.613 1.66669 627.68 0.400024 631.28 0.400024C634.88 0.400024 637.946 1.66669 640.48 4.20002C643.013 6.73336 644.28 9.80002 644.28 13.4C644.28 17 643.013 20.0667 640.48 22.6C637.946 25.1334 634.88 26.4 631.28 26.4ZM641.88 152H620.48V47.2H641.88V152Z" fill="black"/>
</svg>
