<svg width="157" height="153" viewBox="0 0 157 153" fill="none" xmlns="http://www.w3.org/2000/svg">
<path fill-rule="evenodd" clip-rule="evenodd" d="M46.4054 32.7029C46.4054 33.4963 46.4337 34.2832 46.4892 35.0625C45.3095 34.5164 44.0846 34.0346 42.8174 33.6229C25.6401 28.0416 7.19066 37.4421 1.60942 54.6194C-3.97182 71.7967 5.42864 90.2462 22.606 95.8274C23.3602 96.0725 24.1168 96.2886 24.8747 96.4765C23.9909 97.4296 23.1543 98.4456 22.3712 99.5234C11.755 114.135 14.9942 134.587 29.6061 145.203C44.218 155.819 64.6694 152.58 75.2855 137.968C75.7516 137.326 76.191 136.674 76.6039 136.011C77.237 137.145 77.9444 138.255 78.7271 139.332C89.3433 153.944 109.795 157.183 124.407 146.567C139.018 135.951 142.258 115.499 131.641 100.887C131.175 100.246 130.69 99.6256 130.187 99.0278C131.462 98.7763 132.736 98.4461 134.002 98.0345C151.18 92.4533 160.58 74.0038 154.999 56.8265C149.418 39.6492 130.968 30.2487 113.791 35.83C113.038 36.0747 112.3 36.3442 111.577 36.6372C111.732 35.3474 111.811 34.0344 111.811 32.7029C111.811 14.6416 97.1695 -2.14451e-06 79.1082 0C61.047 0 46.4054 14.6416 46.4054 32.7029ZM79.284 80.2568L79.1075 80.4453L77.985 79.2393L78.1173 79.4791L76.6266 80.1725L76.8913 80.1216L77.0896 81.7491L77.1226 81.4847L78.7365 81.8L78.4907 81.6848L79.284 80.2568Z" fill="#FFC1C1"/>
<path d="M75.0969 66.2437C75.5703 63.2633 79.8602 63.2633 80.3335 66.2437L80.6171 68.029C80.9275 69.9831 83.1916 70.9209 84.7928 69.7586L86.2557 68.6967C88.6978 66.924 91.7313 69.9574 89.9585 72.3996L88.8966 73.8625C87.7343 75.4637 88.6722 77.7278 90.6263 78.0382L92.4116 78.3217C95.392 78.7951 95.392 83.085 92.4116 83.5584L90.6263 83.8419C88.6722 84.1523 87.7343 86.4164 88.8967 88.0176L89.9586 89.4805C91.7313 91.9227 88.6978 94.9561 86.2557 93.1834L84.7928 92.1215C83.1915 90.9592 80.9275 91.897 80.6171 93.8511L80.3335 95.6364C79.8602 98.6168 75.5703 98.6168 75.0969 95.6364L74.8133 93.8511C74.503 91.897 72.2389 90.9592 70.6376 92.1215L69.1747 93.1834C66.7326 94.9561 63.6992 91.9227 65.4719 89.4805L66.5338 88.0176C67.6961 86.4164 66.7583 84.1523 64.8041 83.8419L63.0188 83.5584C60.0385 83.085 60.0385 78.7951 63.0189 78.3217L64.8042 78.0382C66.7583 77.7278 67.6961 75.4637 66.5338 73.8625L65.4719 72.3996C63.6992 69.9574 66.7326 66.924 69.1747 68.6967L70.6376 69.7586C72.2389 70.9209 74.503 69.9831 74.8133 68.029L75.0969 66.2437Z" fill="#FF9292"/>
</svg>
